<?xml version="1.0" encoding="UTF-8"?>
<!DOCTYPE svg PUBLIC "-//W3C//DTD SVG 1.1//EN" "http://www.w3.org/Graphics/SVG/1.1/DTD/svg11.dtd">
<svg xmlns="http://www.w3.org/2000/svg" version="1.1" width="256px" height="256px" style="shape-rendering:geometricPrecision; text-rendering:geometricPrecision; image-rendering:optimizeQuality; fill-rule:evenodd; clip-rule:evenodd" xmlns:xlink="http://www.w3.org/1999/xlink">
<g><path style="opacity:0.98" fill="#ffffff" d="M 255.5,112.5 C 255.5,122.5 255.5,132.5 255.5,142.5C 249.268,168.919 234.601,189.419 211.5,204C 169.767,227.311 125.767,232.645 79.5,220C 46.668,211.134 22.168,191.968 6,162.5C 3.50495,155.821 1.33829,149.154 -0.5,142.5C -0.5,132.5 -0.5,122.5 -0.5,112.5C 5.7323,86.081 20.399,65.581 43.5,51C 85.2328,27.6885 129.233,22.3552 175.5,35C 208.332,43.8657 232.832,63.0323 249,92.5C 251.495,99.1791 253.662,105.846 255.5,112.5 Z M 106.5,51.5 C 113.214,52.3413 119.881,53.5079 126.5,55C 127.86,56.9376 127.527,58.6043 125.5,60C 119.047,60.5547 112.714,59.888 106.5,58C 103.929,55.7442 103.929,53.5775 106.5,51.5 Z M 167.5,55.5 C 173.297,55.5916 174.631,57.925 171.5,62.5C 165.308,64.7876 158.975,66.4542 152.5,67.5C 151.131,64.6178 151.798,62.1178 154.5,60C 159.101,58.943 163.434,57.443 167.5,55.5 Z M 75.5,58.5 C 76.9778,58.238 78.3112,58.5713 79.5,59.5C 82.5,64.1667 85.5,68.8333 88.5,73.5C 88.2879,77.5577 86.2879,79.0577 82.5,78C 79.0831,72.9126 76.0831,67.5793 73.5,62C 73.9783,60.6974 74.645,59.5307 75.5,58.5 Z M 50.5,73.5 C 53.7148,75.218 54.5481,77.5513 53,80.5C 49.5,84 46,87.5 42.5,91C 37.3756,92.5473 35.8756,91.0473 38,86.5C 41.6972,81.6377 45.8639,77.3043 50.5,73.5 Z M 124.5,78.5 C 139.53,78.1167 152.364,83.1167 163,93.5C 167.7,103.151 165.867,111.318 157.5,118C 139.712,128.14 121.378,129.14 102.5,121C 90.1364,115.12 86.6364,105.953 92,93.5C 100.993,84.3434 111.826,79.3434 124.5,78.5 Z M 194.5,82.5 C 197.365,82.0548 199.865,82.7215 202,84.5C 203.888,90.6079 206.055,96.6079 208.5,102.5C 205.855,106.144 203.188,105.978 200.5,102C 197.18,95.8715 195.18,89.3715 194.5,82.5 Z M 44.5,117.5 C 50.3029,118.396 55.9695,119.896 61.5,122C 65.2251,124.787 64.7251,126.954 60,128.5C 54.6581,126.911 49.4914,124.911 44.5,122.5C 43.1854,120.801 43.1854,119.135 44.5,117.5 Z M 180.5,117.5 C 187.297,119.154 193.964,121.321 200.5,124C 202.399,127.681 201.399,130.181 197.5,131.5C 191.797,129.766 186.13,127.932 180.5,126C 176.69,122.89 176.69,120.057 180.5,117.5 Z M 83.5,131.5 C 90.6783,132.917 97.345,135.75 103.5,140C 106.31,143.757 105.31,146.257 100.5,147.5C 94.2838,144.473 88.4505,140.807 83,136.5C 82.3603,134.735 82.5269,133.068 83.5,131.5 Z M 22.5,143.5 C 26.597,149.432 31.597,154.599 37.5,159C 40.2413,159.977 43.0746,160.477 46,160.5C 50.4967,159.791 54.9967,159.624 59.5,160C 68.1468,164.633 76.8135,169.3 85.5,174C 93.2612,177.675 101.261,178.342 109.5,176C 115.727,173.535 122.06,171.369 128.5,169.5C 133.686,170.84 138.686,172.673 143.5,175C 148.5,175.667 153.5,175.667 158.5,175C 164.712,171.727 171.046,168.727 177.5,166C 188.095,165.465 198.761,164.465 209.5,163C 213.39,160.404 216.223,156.904 218,152.5C 232.447,138.881 235.447,140.881 227,158.5C 215.293,176.205 199.459,188.705 179.5,196C 137.955,210.764 97.6212,208.098 58.5,188C 46.0465,180.547 35.8798,170.713 28,158.5C 25.2705,153.81 23.4372,148.81 22.5,143.5 Z M 155.5,143.5 C 159.478,142.982 161.311,144.648 161,148.5C 154.892,153.292 148.392,157.126 141.5,160C 140.231,157.861 140.231,155.695 141.5,153.5C 146.487,150.498 151.153,147.164 155.5,143.5 Z"/></g>
</svg>
